<svg width="16" height="16" viewBox="0 0 16 16" fill="none" xmlns="http://www.w3.org/2000/svg">
<rect width="16" height="16" fill="url(#paint0_linear_3909_4)"/>
<path d="M8.33789 12.2402C8.93164 12.2402 9.53906 12.1055 10.1602 11.8359C10.7852 11.5625 11.2793 11.1621 11.6426 10.6348C11.6426 10.584 11.6191 10.541 11.5723 10.5059C11.5293 10.4707 11.4805 10.4531 11.4258 10.4531C10.8398 11.1641 9.97852 11.5195 8.8418 11.5195C7.64258 11.5195 6.73633 11.1582 6.12305 10.4355C5.51367 9.70898 5.20898 8.80664 5.20898 7.72852C5.20898 7.24023 5.26172 6.76953 5.36719 6.31641C5.47656 5.85938 5.64453 5.42383 5.87109 5.00977C6.10156 4.5918 6.42773 4.25391 6.84961 3.99609C7.27539 3.73828 7.77148 3.60938 8.33789 3.60938C8.72461 3.60938 9.08203 3.66992 9.41016 3.79102C9.73828 3.91211 10.0078 4.05469 10.2188 4.21875C10.4297 4.38281 10.6348 4.60352 10.834 4.88086C11.0371 5.1543 11.1895 5.39258 11.291 5.5957C11.3965 5.79492 11.5215 6.04883 11.666 6.35742C11.7832 6.3418 11.8555 6.29883 11.8828 6.22852C11.5938 5.06836 11.1562 4.27344 10.5703 3.84375C9.98828 3.41016 9.24414 3.19336 8.33789 3.19336C7.9707 3.19336 7.5957 3.23828 7.21289 3.32812C6.83008 3.41406 6.43555 3.57031 6.0293 3.79688C5.62695 4.01953 5.27148 4.29688 4.96289 4.62891C4.6543 4.95703 4.40039 5.39062 4.20117 5.92969C4.00195 6.46484 3.90234 7.06445 3.90234 7.72852C3.90234 8.39258 4.00195 8.99219 4.20117 9.52734C4.40039 10.0625 4.6543 10.4941 4.96289 10.8223C5.27148 11.1504 5.62695 11.4258 6.0293 11.6484C6.43555 11.8672 6.83008 12.0195 7.21289 12.1055C7.5957 12.1953 7.9707 12.2402 8.33789 12.2402ZM11.5195 6.62109C11.3516 6.24609 11.1973 5.9375 11.0566 5.69531C10.916 5.44922 10.7285 5.17578 10.4941 4.875C10.2598 4.57031 9.98047 4.33398 9.65625 4.16602C9.33203 3.99805 8.96875 3.89648 8.56641 3.86133C8.12109 3.89648 7.73242 4.03906 7.40039 4.28906C7.06836 4.53516 6.81055 4.85156 6.62695 5.23828C6.44727 5.625 6.31445 6.02734 6.22852 6.44531C6.14648 6.85938 6.10547 7.28711 6.10547 7.72852C6.10547 8.71289 6.35352 9.53906 6.84961 10.207C7.3457 10.875 8.08594 11.2324 9.07031 11.2793C10.0234 11.2324 10.7715 10.877 11.3145 10.2129C11.4668 10.2129 11.5996 10.2637 11.7129 10.3652C11.8262 10.4629 11.8828 10.5801 11.8828 10.7168C11.4883 11.291 10.9551 11.7285 10.2832 12.0293C9.61133 12.3301 8.96289 12.4805 8.33789 12.4805C7.94727 12.4805 7.55078 12.4336 7.14844 12.3398C6.75 12.25 6.33594 12.0898 5.90625 11.8594C5.48047 11.625 5.10352 11.334 4.77539 10.9863C4.44727 10.6387 4.17969 10.1836 3.97266 9.62109C3.76562 9.05469 3.66211 8.42383 3.66211 7.72852C3.66211 7.00195 3.76953 6.35352 3.98438 5.7832C4.19922 5.20898 4.47461 4.75 4.81055 4.40625C5.14648 4.0625 5.53906 3.77734 5.98828 3.55078C6.4375 3.32031 6.87305 3.16406 7.29492 3.08203C7.7207 2.99609 8.14844 2.95312 8.57812 2.95312C9.16406 2.95312 9.80078 3.03125 10.4883 3.1875C11.1758 3.34375 11.668 3.44141 11.9648 3.48047C11.8359 3.98438 11.7852 4.42773 11.8125 4.81055C11.8398 5.18945 11.9512 5.6543 12.1465 6.20508C12.0332 6.43555 11.8242 6.57422 11.5195 6.62109Z" fill="#C07272"/>
<defs>
<linearGradient id="paint0_linear_3909_4" x1="8" y1="0" x2="8" y2="16" gradientUnits="userSpaceOnUse">
<stop stop-color="#FFF500"/>
<stop offset="0.381171" stop-color="#FFF966"/>
<stop offset="1" stop-color="#2CDD00"/>
</linearGradient>
</defs>
</svg>
